<svg width="1651" height="300" viewBox="0 0 1651 300" fill="none" xmlns="http://www.w3.org/2000/svg">
<path opacity="0.1" d="M272.614 149.545C272.614 181.269 266.6 208.258 254.574 230.511C242.642 252.765 226.354 269.763 205.71 281.506C185.161 293.153 162.055 298.977 136.392 298.977C110.54 298.977 87.339 293.106 66.7898 281.364C46.2405 269.621 30 252.623 18.0682 230.369C6.13636 208.116 0.170455 181.174 0.170455 149.545C0.170455 117.822 6.13636 90.8333 18.0682 68.5795C30 46.3258 46.2405 29.375 66.7898 17.7273C87.339 5.98484 110.54 0.113626 136.392 0.113626C162.055 0.113626 185.161 5.98484 205.71 17.7273C226.354 29.375 242.642 46.3258 254.574 68.5795C266.6 90.8333 272.614 117.822 272.614 149.545ZM210.256 149.545C210.256 128.996 207.178 111.667 201.023 97.5568C194.962 83.447 186.392 72.7462 175.312 65.4545C164.233 58.1629 151.259 54.517 136.392 54.517C121.525 54.517 108.551 58.1629 97.4716 65.4545C86.392 72.7462 77.7746 83.447 71.6193 97.5568C65.5587 111.667 62.5284 128.996 62.5284 149.545C62.5284 170.095 65.5587 187.424 71.6193 201.534C77.7746 215.644 86.392 226.345 97.4716 233.636C108.551 240.928 121.525 244.574 136.392 244.574C151.259 244.574 164.233 240.928 175.312 233.636C186.392 226.345 194.962 215.644 201.023 201.534C207.178 187.424 210.256 170.095 210.256 149.545ZM574.851 105.938H512.635C511.499 97.8883 509.179 90.7386 505.675 84.4886C502.171 78.1439 497.673 72.7462 492.18 68.2955C486.688 63.8447 480.343 60.4356 473.146 58.0682C466.044 55.7008 458.326 54.517 449.993 54.517C434.936 54.517 421.821 58.2576 410.646 65.7386C399.472 73.125 390.807 83.9205 384.652 98.125C378.497 112.235 375.419 129.375 375.419 149.545C375.419 170.284 378.497 187.708 384.652 201.818C390.902 215.928 399.614 226.581 410.788 233.778C421.963 240.975 434.889 244.574 449.567 244.574C457.805 244.574 465.429 243.485 472.436 241.307C479.538 239.129 485.836 235.956 491.328 231.79C496.821 227.528 501.366 222.367 504.964 216.307C508.658 210.246 511.214 203.333 512.635 195.568L574.851 195.852C573.241 209.205 569.216 222.083 562.777 234.489C556.432 246.799 547.862 257.831 537.067 267.585C526.366 277.244 513.582 284.915 498.714 290.597C483.942 296.184 467.228 298.977 448.572 298.977C422.625 298.977 399.425 293.106 378.97 281.364C358.61 269.621 342.512 252.623 330.675 230.369C318.932 208.116 313.061 181.174 313.061 149.545C313.061 117.822 319.027 90.8333 330.959 68.5795C342.891 46.3258 359.084 29.375 379.538 17.7273C399.993 5.98484 423.004 0.113626 448.572 0.113626C465.429 0.113626 481.054 2.48105 495.447 7.2159C509.936 11.9508 522.768 18.8636 533.942 27.9545C545.116 36.9507 554.207 47.9829 561.214 61.0511C568.317 74.1193 572.862 89.0814 574.851 105.938ZM798.643 4.0909H860.149V193.011C860.149 214.223 855.083 232.784 844.95 248.693C834.912 264.602 820.85 277.008 802.763 285.909C784.676 294.716 763.606 299.119 739.553 299.119C715.405 299.119 694.287 294.716 676.2 285.909C658.113 277.008 644.051 264.602 634.013 248.693C623.975 232.784 618.956 214.223 618.956 193.011V4.0909H680.462V187.756C680.462 198.835 682.876 208.684 687.706 217.301C692.63 225.919 699.543 232.689 708.445 237.614C717.346 242.538 727.715 245 739.553 245C751.484 245 761.854 242.538 770.661 237.614C779.562 232.689 786.428 225.919 791.257 217.301C796.181 208.684 798.643 198.835 798.643 187.756V4.0909ZM910.753 295V4.0909H972.259V244.29H1096.97V295H910.753ZM1317.39 4.0909H1378.9V193.011C1378.9 214.223 1373.83 232.784 1363.7 248.693C1353.66 264.602 1339.6 277.008 1321.51 285.909C1303.43 294.716 1282.36 299.119 1258.3 299.119C1234.15 299.119 1213.04 294.716 1194.95 285.909C1176.86 277.008 1162.8 264.602 1152.76 248.693C1142.72 232.784 1137.71 214.223 1137.71 193.011V4.0909H1199.21V187.756C1199.21 198.835 1201.63 208.684 1206.46 217.301C1211.38 225.919 1218.29 232.689 1227.19 237.614C1236.1 242.538 1246.47 245 1258.3 245C1270.23 245 1280.6 242.538 1289.41 237.614C1298.31 232.689 1305.18 225.919 1310.01 217.301C1314.93 208.684 1317.39 198.835 1317.39 187.756V4.0909ZM1587.32 87.7557C1586.18 76.2973 1581.3 67.3958 1572.68 61.0511C1564.07 54.7064 1552.37 51.5341 1537.6 51.5341C1527.56 51.5341 1519.09 52.9545 1512.17 55.7955C1505.26 58.5417 1499.96 62.3769 1496.26 67.3011C1492.67 72.2254 1490.87 77.8125 1490.87 84.0625C1490.68 89.2708 1491.77 93.8163 1494.13 97.6989C1496.6 101.581 1499.96 104.943 1504.22 107.784C1508.48 110.53 1513.4 112.945 1518.99 115.028C1524.58 117.017 1530.54 118.722 1536.89 120.142L1563.03 126.392C1575.71 129.233 1587.36 133.021 1597.97 137.756C1608.57 142.491 1617.76 148.314 1625.53 155.227C1633.29 162.14 1639.3 170.284 1643.57 179.659C1647.92 189.034 1650.15 199.782 1650.24 211.903C1650.15 229.706 1645.6 245.142 1636.61 258.21C1627.7 271.184 1614.82 281.269 1597.97 288.466C1581.21 295.568 1560.99 299.119 1537.32 299.119C1513.83 299.119 1493.38 295.521 1475.95 288.324C1458.62 281.127 1445.08 270.473 1435.33 256.364C1425.67 242.159 1420.6 224.593 1420.13 203.665H1479.64C1480.31 213.419 1483.1 221.562 1488.03 228.097C1493.04 234.536 1499.72 239.413 1508.05 242.727C1516.48 245.947 1526 247.557 1536.61 247.557C1547.02 247.557 1556.07 246.042 1563.74 243.011C1571.5 239.981 1577.51 235.767 1581.78 230.369C1586.04 224.972 1588.17 218.769 1588.17 211.761C1588.17 205.227 1586.23 199.735 1582.34 195.284C1578.56 190.833 1572.97 187.045 1565.58 183.92C1558.29 180.795 1549.34 177.955 1538.74 175.398L1507.06 167.443C1482.53 161.477 1463.17 152.15 1448.96 139.46C1434.76 126.771 1427.7 109.678 1427.8 88.1818C1427.7 70.5682 1432.39 55.1799 1441.86 42.017C1451.43 28.8542 1464.54 18.5795 1481.21 11.1932C1497.87 3.80681 1516.81 0.113626 1538.03 0.113626C1559.62 0.113626 1578.46 3.80681 1594.56 11.1932C1610.75 18.5795 1623.35 28.8542 1632.34 42.017C1641.34 55.1799 1645.98 70.4261 1646.26 87.7557H1587.32Z" fill="url(#paint0_linear_7_78)"/>
<defs>
<linearGradient id="paint0_linear_7_78" x1="823.5" y1="-92" x2="823.5" y2="295" gradientUnits="userSpaceOnUse">
<stop stop-color="#BC10D8"/>
<stop offset="1" stop-color="#5000FA" stop-opacity="0.93"/>
</linearGradient>
</defs>
</svg>
